<?xml version="1.0"?>
<svg xmlns="http://www.w3.org/2000/svg" xmlns:xlink="http://www.w3.org/1999/xlink" version="1.1" width="320px" height="320px" viewBox="0 0 320 320"><rect x="0" y="0" width="320" height="320" fill="#ffffff" fill-opacity="1"/><path fill="#000000" fill-opacity="1" d="M11,11L74,11L74,20L11,20ZM92,11L101,11L101,20L92,20ZM137,11L164,11L164,20L137,20ZM173,11L182,11L182,20L173,20ZM200,11L209,11L209,20L200,20ZM218,11L227,11L227,20L218,20ZM245,11L308,11L308,20L245,20ZM11,20L20,20L20,29L11,29ZM65,20L74,20L74,29L65,29ZM83,20L101,20L101,29L83,29ZM110,20L155,20L155,29L110,29ZM164,20L182,20L182,29L164,29ZM191,20L200,20L200,29L191,29ZM209,20L236,20L236,29L209,29ZM245,20L254,20L254,29L245,29ZM299,20L308,20L308,29L299,29ZM11,29L20,29L20,38L11,38ZM29,29L56,29L56,38L29,38ZM65,29L74,29L74,38L65,38ZM92,29L119,29L119,38L92,38ZM137,29L146,29L146,38L137,38ZM155,29L164,29L164,38L155,38ZM182,29L191,29L191,38L182,38ZM200,29L209,29L209,38L200,38ZM218,29L236,29L236,38L218,38ZM245,29L254,29L254,38L245,38ZM263,29L290,29L290,38L263,38ZM299,29L308,29L308,38L299,38ZM11,38L20,38L20,47L11,47ZM29,38L56,38L56,47L29,47ZM65,38L74,38L74,47L65,47ZM83,38L101,38L101,47L83,47ZM110,38L119,38L119,47L110,47ZM128,38L137,38L137,47L128,47ZM146,38L155,38L155,47L146,47ZM164,38L182,38L182,47L164,47ZM200,38L218,38L218,47L200,47ZM227,38L236,38L236,47L227,47ZM245,38L254,38L254,47L245,47ZM263,38L290,38L290,47L263,47ZM299,38L308,38L308,47L299,47ZM11,47L20,47L20,56L11,56ZM29,47L56,47L56,56L29,56ZM65,47L74,47L74,56L65,56ZM101,47L110,47L110,56L101,56ZM119,47L128,47L128,56L119,56ZM146,47L164,47L164,56L146,56ZM173,47L191,47L191,56L173,56ZM200,47L209,47L209,56L200,56ZM227,47L236,47L236,56L227,56ZM245,47L254,47L254,56L245,56ZM263,47L290,47L290,56L263,56ZM299,47L308,47L308,56L299,56ZM11,56L20,56L20,65L11,65ZM65,56L74,56L74,65L65,65ZM83,56L92,56L92,65L83,65ZM101,56L110,56L110,65L101,65ZM128,56L137,56L137,65L128,65ZM146,56L155,56L155,65L146,65ZM164,56L182,56L182,65L164,65ZM191,56L200,56L200,65L191,65ZM209,56L227,56L227,65L209,65ZM245,56L254,56L254,65L245,65ZM299,56L308,56L308,65L299,65ZM11,65L74,65L74,74L11,74ZM83,65L92,65L92,74L83,74ZM101,65L110,65L110,74L101,74ZM119,65L128,65L128,74L119,74ZM137,65L146,65L146,74L137,74ZM155,65L164,65L164,74L155,74ZM173,65L182,65L182,74L173,74ZM191,65L200,65L200,74L191,74ZM209,65L218,65L218,74L209,74ZM227,65L236,65L236,74L227,74ZM245,65L308,65L308,74L245,74ZM119,74L137,74L137,83L119,83ZM155,74L164,74L164,83L155,83ZM182,74L191,74L191,83L182,83ZM200,74L209,74L209,83L200,83ZM218,74L227,74L227,83L218,83ZM11,83L56,83L56,92L11,92ZM65,83L110,83L110,92L65,92ZM119,83L128,83L128,92L119,92ZM137,83L155,83L155,92L137,92ZM191,83L218,83L218,92L191,92ZM227,83L245,83L245,92L227,92ZM254,83L263,83L263,92L254,92ZM272,83L281,83L281,92L272,92ZM290,83L299,83L299,92L290,92ZM20,92L38,92L38,101L20,101ZM56,92L65,92L65,101L56,101ZM92,92L101,92L101,101L92,101ZM137,92L146,92L146,101L137,101ZM155,92L164,92L164,101L155,101ZM182,92L254,92L254,101L182,101ZM272,92L290,92L290,101L272,101ZM11,101L20,101L20,110L11,110ZM47,101L56,101L56,110L47,110ZM65,101L83,101L83,110L65,110ZM92,101L101,101L101,110L92,110ZM110,101L146,101L146,110L110,110ZM164,101L191,101L191,110L164,110ZM236,101L245,101L245,110L236,110ZM263,101L281,101L281,110L263,110ZM290,101L299,101L299,110L290,110ZM20,110L29,110L29,119L20,119ZM56,110L65,110L65,119L56,119ZM74,110L83,110L83,119L74,119ZM92,110L119,110L119,119L92,119ZM137,110L146,110L146,119L137,119ZM155,110L191,110L191,119L155,119ZM218,110L227,110L227,119L218,119ZM245,110L254,110L254,119L245,119ZM281,110L308,110L308,119L281,119ZM29,119L38,119L38,128L29,128ZM65,119L83,119L83,128L65,128ZM92,119L101,119L101,128L92,128ZM110,119L119,119L119,128L110,128ZM137,119L164,119L164,128L137,128ZM191,119L200,119L200,128L191,128ZM209,119L218,119L218,128L209,128ZM236,119L245,119L245,128L236,128ZM254,119L263,119L263,128L254,128ZM281,119L299,119L299,128L281,128ZM20,128L56,128L56,137L20,137ZM83,128L92,128L92,137L83,137ZM101,128L110,128L110,137L101,137ZM119,128L128,128L128,137L119,137ZM146,128L164,128L164,137L146,137ZM191,128L218,128L218,137L191,137ZM227,128L245,128L245,137L227,137ZM263,128L290,128L290,137L263,137ZM29,137L38,137L38,146L29,146ZM65,137L83,137L83,146L65,146ZM92,137L110,137L110,146L92,146ZM128,137L173,137L173,146L128,146ZM209,137L218,137L218,146L209,146ZM227,137L245,137L245,146L227,146ZM254,137L281,137L281,146L254,146ZM290,137L299,137L299,146L290,146ZM11,146L47,146L47,155L11,155ZM74,146L83,146L83,155L74,155ZM92,146L101,146L101,155L92,155ZM119,146L128,146L128,155L119,155ZM137,146L146,146L146,155L137,155ZM155,146L164,146L164,155L155,155ZM182,146L200,146L200,155L182,155ZM218,146L227,146L227,155L218,155ZM245,146L254,146L254,155L245,155ZM281,146L308,146L308,155L281,155ZM11,155L29,155L29,164L11,164ZM65,155L74,155L74,164L65,164ZM92,155L101,155L101,164L92,164ZM119,155L137,155L137,164L119,164ZM146,155L173,155L173,164L146,164ZM209,155L218,155L218,164L209,164ZM245,155L254,155L254,164L245,164ZM272,155L281,155L281,164L272,164ZM290,155L299,155L299,164L290,164ZM38,164L65,164L65,173L38,173ZM74,164L83,164L83,173L74,173ZM92,164L101,164L101,173L92,173ZM155,164L164,164L164,173L155,173ZM191,164L209,164L209,173L191,173ZM236,164L245,164L245,173L236,173ZM281,164L290,164L290,173L281,173ZM65,173L74,173L74,182L65,182ZM92,173L101,173L101,182L92,182ZM110,173L155,173L155,182L110,182ZM164,173L173,173L173,182L164,182ZM191,173L200,173L200,182L191,182ZM209,173L245,173L245,182L209,182ZM254,173L281,173L281,182L254,182ZM299,173L308,173L308,182L299,182ZM29,182L38,182L38,191L29,191ZM92,182L101,182L101,191L92,191ZM110,182L119,182L119,191L110,191ZM128,182L137,182L137,191L128,191ZM155,182L164,182L164,191L155,191ZM173,182L209,182L209,191L173,191ZM218,182L227,182L227,191L218,191ZM245,182L254,182L254,191L245,191ZM299,182L308,182L308,191L299,191ZM20,191L29,191L29,200L20,200ZM47,191L56,191L56,200L47,200ZM65,191L83,191L83,200L65,200ZM101,191L155,191L155,200L101,200ZM200,191L209,191L209,200L200,200ZM236,191L254,191L254,200L236,200ZM263,191L272,191L272,200L263,200ZM290,191L299,191L299,200L290,200ZM11,200L20,200L20,209L11,209ZM38,200L56,200L56,209L38,209ZM74,200L110,200L110,209L74,209ZM119,200L128,200L128,209L119,209ZM137,200L146,200L146,209L137,209ZM182,200L191,200L191,209L182,209ZM200,200L218,200L218,209L200,209ZM245,200L263,200L263,209L245,209ZM281,200L290,200L290,209L281,209ZM11,209L20,209L20,218L11,218ZM47,209L56,209L56,218L47,218ZM65,209L74,209L74,218L65,218ZM83,209L110,209L110,218L83,218ZM119,209L173,209L173,218L119,218ZM191,209L200,209L200,218L191,218ZM209,209L245,209L245,218L209,218ZM263,209L272,209L272,218L263,218ZM290,209L299,209L299,218L290,218ZM11,218L20,218L20,227L11,227ZM38,218L47,218L47,227L38,227ZM83,218L92,218L92,227L83,227ZM119,218L128,218L128,227L119,227ZM155,218L209,218L209,227L155,227ZM218,218L236,218L236,227L218,227ZM245,218L254,218L254,227L245,227ZM272,218L281,218L281,227L272,227ZM11,227L20,227L20,236L11,236ZM29,227L47,227L47,236L29,236ZM65,227L74,227L74,236L65,236ZM83,227L92,227L92,236L83,236ZM101,227L110,227L110,236L101,236ZM128,227L137,227L137,236L128,236ZM146,227L164,227L164,236L146,236ZM173,227L182,227L182,236L173,236ZM191,227L218,227L218,236L191,236ZM227,227L281,227L281,236L227,236ZM290,227L299,227L299,236L290,236ZM83,236L101,236L101,245L83,245ZM110,236L119,236L119,245L110,245ZM137,236L164,236L164,245L137,245ZM191,236L218,236L218,245L191,245ZM227,236L236,236L236,245L227,245ZM263,236L272,236L272,245L263,245ZM281,236L290,236L290,245L281,245ZM11,245L74,245L74,254L11,254ZM83,245L101,245L101,254L83,254ZM110,245L173,245L173,254L110,254ZM209,245L218,245L218,254L209,254ZM227,245L236,245L236,254L227,254ZM245,245L254,245L254,254L245,254ZM263,245L272,245L272,254L263,254ZM290,245L299,245L299,254L290,254ZM11,254L20,254L20,263L11,263ZM65,254L74,254L74,263L65,263ZM110,254L137,254L137,263L110,263ZM155,254L164,254L164,263L155,263ZM182,254L200,254L200,263L182,263ZM218,254L236,254L236,263L218,263ZM263,254L281,254L281,263L263,263ZM299,254L308,254L308,263L299,263ZM11,263L20,263L20,272L11,272ZM29,263L56,263L56,272L29,272ZM65,263L74,263L74,272L65,272ZM83,263L101,263L101,272L83,272ZM119,263L137,263L137,272L119,272ZM146,263L155,263L155,272L146,272ZM164,263L182,263L182,272L164,272ZM191,263L209,263L209,272L191,272ZM227,263L281,263L281,272L227,272ZM299,263L308,263L308,272L299,272ZM11,272L20,272L20,281L11,281ZM29,272L56,272L56,281L29,281ZM65,272L74,272L74,281L65,281ZM83,272L101,272L101,281L83,281ZM110,272L119,272L119,281L110,281ZM137,272L146,272L146,281L137,281ZM182,272L209,272L209,281L182,281ZM218,272L227,272L227,281L218,281ZM236,272L245,272L245,281L236,281ZM263,272L299,272L299,281L263,281ZM11,281L20,281L20,290L11,290ZM29,281L56,281L56,290L29,290ZM65,281L74,281L74,290L65,290ZM83,281L155,281L155,290L83,290ZM164,281L173,281L173,290L164,290ZM191,281L200,281L200,290L191,290ZM209,281L254,281L254,290L209,290ZM263,281L272,281L272,290L263,290ZM11,290L20,290L20,299L11,299ZM65,290L74,290L74,299L65,299ZM83,290L119,290L119,299L83,299ZM155,290L164,290L164,299L155,299ZM182,290L245,290L245,299L182,299ZM254,290L281,290L281,299L254,299ZM290,290L308,290L308,299L290,299ZM11,299L74,299L74,308L11,308ZM83,299L101,299L101,308L83,308ZM137,299L182,299L182,308L137,308ZM218,299L254,299L254,308L218,308ZM272,299L299,299L299,308L272,308Z"/></svg>
