<?xml version="1.0"?>
<svg xmlns="http://www.w3.org/2000/svg" xmlns:xlink="http://www.w3.org/1999/xlink" version="1.1" width="320px" height="320px" viewBox="0 0 320 320"><rect x="0" y="0" width="320" height="320" fill="#ffffff" fill-opacity="1"/><path fill="#000000" fill-opacity="1" d="M15,15L85,15L85,25L15,25ZM105,15L115,15L115,25L105,25ZM155,15L175,15L175,25L155,25ZM215,15L225,15L225,25L215,25ZM235,15L305,15L305,25L235,25ZM15,25L25,25L25,35L15,35ZM75,25L85,25L85,35L75,35ZM95,25L115,25L115,35L95,35ZM125,25L175,25L175,35L125,35ZM185,25L205,25L205,35L185,35ZM235,25L245,25L245,35L235,35ZM295,25L305,25L305,35L295,35ZM15,35L25,35L25,45L15,45ZM35,35L65,35L65,45L35,45ZM75,35L85,35L85,45L75,45ZM105,35L135,35L135,45L105,45ZM175,35L225,35L225,45L175,45ZM235,35L245,35L245,45L235,45ZM255,35L285,35L285,45L255,45ZM295,35L305,35L305,45L295,45ZM15,45L25,45L25,55L15,55ZM35,45L65,45L65,55L35,55ZM75,45L85,45L85,55L75,55ZM95,45L115,45L115,55L95,55ZM125,45L135,45L135,55L125,55ZM145,45L155,45L155,55L145,55ZM165,45L175,45L175,55L165,55ZM185,45L195,45L195,55L185,55ZM235,45L245,45L245,55L235,55ZM255,45L285,45L285,55L255,55ZM295,45L305,45L305,55L295,55ZM15,55L25,55L25,65L15,65ZM35,55L65,55L65,65L35,65ZM75,55L85,55L85,65L75,65ZM115,55L125,55L125,65L115,65ZM135,55L145,55L145,65L135,65ZM155,55L165,55L165,65L155,65ZM215,55L225,55L225,65L215,65ZM235,55L245,55L245,65L235,65ZM255,55L285,55L285,65L255,65ZM295,55L305,55L305,65L295,65ZM15,65L25,65L25,75L15,75ZM75,65L85,65L85,75L75,75ZM95,65L105,65L105,75L95,75ZM115,65L125,65L125,75L115,75ZM145,65L175,65L175,75L145,75ZM185,65L195,65L195,75L185,75ZM235,65L245,65L245,75L235,75ZM295,65L305,65L305,75L295,75ZM15,75L85,75L85,85L15,85ZM95,75L105,75L105,85L95,85ZM115,75L125,75L125,85L115,85ZM135,75L145,75L145,85L135,85ZM155,75L165,75L165,85L155,85ZM175,75L185,75L185,85L175,85ZM195,75L205,75L205,85L195,85ZM215,75L225,75L225,85L215,85ZM235,75L305,75L305,85L235,85ZM135,85L145,85L145,95L135,95ZM175,85L225,85L225,95L175,95ZM15,95L65,95L65,105L15,105ZM75,95L125,95L125,105L75,105ZM135,95L155,95L155,105L135,105ZM165,95L195,95L195,105L165,105ZM225,95L235,95L235,105L225,105ZM245,95L255,95L255,105L245,105ZM265,95L275,95L275,105L265,105ZM285,95L295,95L295,105L285,105ZM25,105L35,105L35,115L25,115ZM65,105L75,105L75,115L65,115ZM105,105L115,105L115,115L105,115ZM155,105L165,105L165,115L155,115ZM175,105L185,105L185,115L175,115ZM195,105L245,105L245,115L195,115ZM255,105L275,105L275,115L255,115ZM285,105L295,105L295,115L285,115ZM25,115L45,115L45,125L25,125ZM55,115L65,115L65,125L55,125ZM75,115L85,115L85,125L75,125ZM95,115L115,115L115,125L95,125ZM125,115L165,115L165,125L125,125ZM185,115L195,115L195,125L185,125ZM205,115L215,115L215,125L205,125ZM245,115L255,115L255,125L245,125ZM265,115L285,115L285,125L265,125ZM25,125L45,125L45,135L25,135ZM55,125L75,125L75,135L55,135ZM85,125L135,125L135,135L85,135ZM145,125L155,125L155,135L145,135ZM195,125L215,125L215,135L195,135ZM235,125L275,125L275,135L235,135ZM295,125L305,125L305,135L295,135ZM15,135L25,135L25,145L15,145ZM55,135L65,135L65,145L55,145ZM75,135L95,135L95,145L75,145ZM105,135L115,135L115,145L105,145ZM125,135L135,135L135,145L125,145ZM165,135L185,135L185,145L165,145ZM195,135L205,135L205,145L195,145ZM225,135L265,135L265,145L225,145ZM85,145L125,145L125,155L85,155ZM135,145L145,145L145,155L135,155ZM165,145L185,145L185,155L165,155ZM215,145L235,145L235,155L215,155ZM255,145L275,145L275,155L255,155ZM285,145L295,145L295,155L285,155ZM35,155L45,155L45,165L35,165ZM65,155L85,155L85,165L65,165ZM115,155L125,155L125,165L115,165ZM145,155L175,155L175,165L145,165ZM185,155L195,155L195,165L185,165ZM215,155L235,155L235,165L215,165ZM265,155L305,155L305,165L265,165ZM35,165L55,165L55,175L35,175ZM65,165L75,165L75,175L65,175ZM95,165L115,165L115,175L95,175ZM135,165L145,165L145,175L135,175ZM155,165L165,165L165,175L155,175ZM175,165L185,165L185,175L175,175ZM195,165L215,165L215,175L195,175ZM225,165L265,165L265,175L225,175ZM285,165L305,165L305,175L285,175ZM15,175L25,175L25,185L15,185ZM65,175L85,175L85,185L65,185ZM95,175L125,175L125,185L95,185ZM135,175L145,175L145,185L135,185ZM155,175L175,175L175,185L155,185ZM215,175L225,175L225,185L215,185ZM235,175L265,175L265,185L235,185ZM15,185L25,185L25,195L15,195ZM55,185L65,185L65,195L55,195ZM105,185L125,185L125,195L105,195ZM155,185L185,185L185,195L155,195ZM215,185L255,185L255,195L215,195ZM265,185L275,185L275,195L265,195ZM15,195L25,195L25,205L15,205ZM35,195L55,195L55,205L35,205ZM65,195L85,195L85,205L65,205ZM125,195L195,195L195,205L125,205ZM215,195L225,195L225,205L215,205ZM265,195L305,195L305,205L265,205ZM15,205L25,205L25,215L15,215ZM55,205L65,205L65,215L55,215ZM85,205L135,205L135,215L85,215ZM155,205L165,205L165,215L155,215ZM175,205L215,205L215,215L175,215ZM225,205L265,205L265,215L225,215ZM285,205L305,205L305,215L285,215ZM15,215L25,215L25,225L15,225ZM35,215L85,215L85,225L35,225ZM95,215L105,215L105,225L95,225ZM125,215L135,215L135,225L125,225ZM145,215L155,215L155,225L145,225ZM165,215L175,215L175,225L165,225ZM195,215L205,215L205,225L195,225ZM215,215L295,215L295,225L215,225ZM95,225L115,225L115,235L95,235ZM135,225L145,225L145,235L135,235ZM155,225L165,225L165,235L155,235ZM195,225L205,225L205,235L195,235ZM215,225L225,225L225,235L215,235ZM255,225L265,225L265,235L255,235ZM285,225L295,225L295,235L285,235ZM15,235L85,235L85,245L15,245ZM95,235L105,235L105,245L95,245ZM145,235L155,235L155,245L145,245ZM165,235L195,235L195,245L165,245ZM205,235L225,235L225,245L205,245ZM235,235L245,235L245,245L235,245ZM255,235L285,235L285,245L255,245ZM15,245L25,245L25,255L15,255ZM75,245L85,245L85,255L75,255ZM135,245L155,245L155,255L135,255ZM175,245L185,245L185,255L175,255ZM205,245L225,245L225,255L205,255ZM255,245L265,245L265,255L255,255ZM275,245L305,245L305,255L275,255ZM15,255L25,255L25,265L15,265ZM35,255L65,255L65,265L35,265ZM75,255L85,255L85,265L75,265ZM95,255L105,255L105,265L95,265ZM135,255L205,255L205,265L135,265ZM215,255L265,255L265,265L215,265ZM275,255L305,255L305,265L275,265ZM15,265L25,265L25,275L15,275ZM35,265L65,265L65,275L35,275ZM75,265L85,265L85,275L75,275ZM95,265L105,265L105,275L95,275ZM115,265L125,265L125,275L115,275ZM155,265L185,265L185,275L155,275ZM195,265L225,265L225,275L195,275ZM245,265L255,265L255,275L245,275ZM15,275L25,275L25,285L15,285ZM35,275L65,275L65,285L35,285ZM75,275L85,275L85,285L75,285ZM95,275L105,275L105,285L95,285ZM125,275L145,275L145,285L125,285ZM165,275L175,275L175,285L165,285ZM185,275L195,275L195,285L185,285ZM205,275L215,275L215,285L205,285ZM225,275L235,275L235,285L225,285ZM245,275L255,275L255,285L245,285ZM275,275L295,275L295,285L275,285ZM15,285L25,285L25,295L15,295ZM75,285L85,285L85,295L75,295ZM95,285L135,285L135,295L95,295ZM175,285L185,285L185,295L175,295ZM205,285L215,285L215,295L205,295ZM265,285L285,285L285,295L265,295ZM295,285L305,285L305,295L295,295ZM15,295L85,295L85,305L15,305ZM95,295L145,295L145,305L95,305ZM165,295L195,295L195,305L165,305ZM205,295L215,295L215,305L205,305ZM225,295L245,295L245,305L225,305ZM255,295L285,295L285,305L255,305Z"/></svg>
