<?xml version="1.0"?>
<svg xmlns="http://www.w3.org/2000/svg" xmlns:xlink="http://www.w3.org/1999/xlink" version="1.1" width="320px" height="320px" viewBox="0 0 320 320"><rect x="0" y="0" width="320" height="320" fill="#ffffff" fill-opacity="1"/><path fill="#000000" fill-opacity="1" d="M11,11L74,11L74,20L11,20ZM101,11L110,11L110,20L101,20ZM119,11L128,11L128,20L119,20ZM182,11L191,11L191,20L182,20ZM200,11L209,11L209,20L200,20ZM227,11L236,11L236,20L227,20ZM245,11L308,11L308,20L245,20ZM11,20L20,20L20,29L11,29ZM65,20L74,20L74,29L65,29ZM83,20L92,20L92,29L83,29ZM101,20L110,20L110,29L101,29ZM128,20L173,20L173,29L128,29ZM191,20L200,20L200,29L191,29ZM209,20L236,20L236,29L209,29ZM245,20L254,20L254,29L245,29ZM299,20L308,20L308,29L299,29ZM11,29L20,29L20,38L11,38ZM29,29L56,29L56,38L29,38ZM65,29L74,29L74,38L65,38ZM119,29L137,29L137,38L119,38ZM155,29L227,29L227,38L155,38ZM245,29L254,29L254,38L245,38ZM263,29L290,29L290,38L263,38ZM299,29L308,29L308,38L299,38ZM11,38L20,38L20,47L11,47ZM29,38L56,38L56,47L29,47ZM65,38L74,38L74,47L65,47ZM83,38L110,38L110,47L83,47ZM119,38L128,38L128,47L119,47ZM146,38L155,38L155,47L146,47ZM191,38L200,38L200,47L191,47ZM245,38L254,38L254,47L245,47ZM263,38L290,38L290,47L263,47ZM299,38L308,38L308,47L299,47ZM11,47L20,47L20,56L11,56ZM29,47L56,47L56,56L29,56ZM65,47L74,47L74,56L65,56ZM92,47L101,47L101,56L92,56ZM137,47L155,47L155,56L137,56ZM173,47L182,47L182,56L173,56ZM191,47L209,47L209,56L191,56ZM245,47L254,47L254,56L245,56ZM263,47L290,47L290,56L263,56ZM299,47L308,47L308,56L299,56ZM11,56L20,56L20,65L11,65ZM65,56L74,56L74,65L65,65ZM83,56L101,56L101,65L83,65ZM110,56L173,56L173,65L110,65ZM209,56L218,56L218,65L209,65ZM227,56L236,56L236,65L227,65ZM245,56L254,56L254,65L245,65ZM299,56L308,56L308,65L299,65ZM11,65L74,65L74,74L11,74ZM83,65L92,65L92,74L83,74ZM101,65L110,65L110,74L101,74ZM119,65L128,65L128,74L119,74ZM137,65L146,65L146,74L137,74ZM155,65L164,65L164,74L155,74ZM173,65L182,65L182,74L173,74ZM191,65L200,65L200,74L191,74ZM209,65L218,65L218,74L209,74ZM227,65L236,65L236,74L227,74ZM245,65L308,65L308,74L245,74ZM92,74L119,74L119,83L92,83ZM155,74L227,74L227,83L155,83ZM11,83L56,83L56,92L11,92ZM65,83L101,83L101,92L65,92ZM110,83L119,83L119,92L110,92ZM128,83L137,83L137,92L128,92ZM146,83L164,83L164,92L146,92ZM173,83L182,83L182,92L173,92ZM191,83L200,83L200,92L191,92ZM209,83L218,83L218,92L209,92ZM236,83L245,83L245,92L236,92ZM254,83L263,83L263,92L254,92ZM272,83L281,83L281,92L272,92ZM290,83L299,83L299,92L290,92ZM11,92L20,92L20,101L11,101ZM29,92L56,92L56,101L29,101ZM74,92L92,92L92,101L74,101ZM101,92L110,92L110,101L101,101ZM119,92L128,92L128,101L119,101ZM137,92L164,92L164,101L137,101ZM200,92L218,92L218,101L200,101ZM227,92L236,92L236,101L227,101ZM272,92L290,92L290,101L272,101ZM20,101L38,101L38,110L20,110ZM56,101L74,101L74,110L56,110ZM83,101L92,101L92,110L83,110ZM101,101L110,101L110,110L101,110ZM128,101L146,101L146,110L128,110ZM164,101L173,101L173,110L164,110ZM182,101L191,101L191,110L182,110ZM209,101L218,101L218,110L209,110ZM227,101L245,101L245,110L227,110ZM254,101L281,101L281,110L254,110ZM290,101L299,101L299,110L290,110ZM29,110L38,110L38,119L29,119ZM47,110L56,110L56,119L47,119ZM74,110L92,110L92,119L74,119ZM119,110L128,110L128,119L119,119ZM164,110L209,110L209,119L164,119ZM218,110L227,110L227,119L218,119ZM245,110L254,110L254,119L245,119ZM281,110L308,110L308,119L281,119ZM11,119L38,119L38,128L11,128ZM56,119L110,119L110,128L56,128ZM119,119L137,119L137,128L119,128ZM146,119L155,119L155,128L146,128ZM164,119L173,119L173,128L164,128ZM200,119L218,119L218,128L200,128ZM227,119L245,119L245,128L227,128ZM254,119L272,119L272,128L254,128ZM281,119L299,119L299,128L281,128ZM11,128L29,128L29,137L11,137ZM38,128L65,128L65,137L38,137ZM83,128L101,128L101,137L83,137ZM137,128L146,128L146,137L137,137ZM155,128L164,128L164,137L155,137ZM173,128L191,128L191,137L173,137ZM200,128L227,128L227,137L200,137ZM236,128L245,128L245,137L236,137ZM263,128L290,128L290,137L263,137ZM11,137L20,137L20,146L11,146ZM65,137L74,137L74,146L65,146ZM83,137L101,137L101,146L83,146ZM110,137L146,137L146,146L110,146ZM164,137L173,137L173,146L164,146ZM191,137L200,137L200,146L191,146ZM209,137L245,137L245,146L209,146ZM254,137L281,137L281,146L254,146ZM290,137L299,137L299,146L290,146ZM11,146L20,146L20,155L11,155ZM56,146L65,146L65,155L56,155ZM74,146L92,146L92,155L74,155ZM101,146L119,146L119,155L101,155ZM128,146L137,146L137,155L128,155ZM155,146L164,146L164,155L155,155ZM173,146L227,146L227,155L173,155ZM236,146L263,146L263,155L236,155ZM281,146L308,146L308,155L281,155ZM47,155L74,155L74,164L47,164ZM83,155L92,155L92,164L83,164ZM101,155L119,155L119,164L101,164ZM128,155L173,155L173,164L128,164ZM191,155L200,155L200,164L191,164ZM236,155L245,155L245,164L236,164ZM254,155L263,155L263,164L254,164ZM272,155L281,155L281,164L272,164ZM290,155L299,155L299,164L290,164ZM38,164L47,164L47,173L38,173ZM101,164L110,164L110,173L101,173ZM119,164L128,164L128,173L119,173ZM137,164L155,164L155,173L137,173ZM191,164L209,164L209,173L191,173ZM218,164L227,164L227,173L218,173ZM245,164L272,164L272,173L245,173ZM281,164L290,164L290,173L281,173ZM11,173L29,173L29,182L11,182ZM47,173L74,173L74,182L47,182ZM101,173L110,173L110,182L101,182ZM128,173L146,173L146,182L128,182ZM164,173L191,173L191,182L164,182ZM209,173L236,173L236,182L209,182ZM263,173L281,173L281,182L263,182ZM299,173L308,173L308,182L299,182ZM29,182L47,182L47,191L29,191ZM83,182L101,182L101,191L83,191ZM119,182L137,182L137,191L119,191ZM155,182L191,182L191,191L155,191ZM200,182L254,182L254,191L200,191ZM299,182L308,182L308,191L299,191ZM20,191L29,191L29,200L20,200ZM56,191L92,191L92,200L56,200ZM119,191L128,191L128,200L119,200ZM137,191L164,191L164,200L137,200ZM200,191L218,191L218,200L200,200ZM236,191L245,191L245,200L236,200ZM254,191L272,191L272,200L254,200ZM290,191L299,191L299,200L290,200ZM11,200L38,200L38,209L11,209ZM146,200L164,200L164,209L146,209ZM191,200L209,200L209,209L191,209ZM236,200L245,200L245,209L236,209ZM254,200L263,200L263,209L254,209ZM281,200L299,200L299,209L281,209ZM11,209L20,209L20,218L11,218ZM29,209L47,209L47,218L29,218ZM56,209L101,209L101,218L56,218ZM110,209L155,209L155,218L110,218ZM164,209L173,209L173,218L164,218ZM191,209L200,209L200,218L191,218ZM209,209L218,209L218,218L209,218ZM227,209L236,209L236,218L227,218ZM263,209L272,209L272,218L263,218ZM11,218L20,218L20,227L11,227ZM29,218L38,218L38,227L29,227ZM47,218L65,218L65,227L47,227ZM110,218L119,218L119,227L110,227ZM128,218L137,218L137,227L128,227ZM155,218L164,218L164,227L155,227ZM182,218L191,218L191,227L182,227ZM200,218L209,218L209,227L200,227ZM218,218L227,218L227,227L218,227ZM236,218L254,218L254,227L236,227ZM272,218L281,218L281,227L272,227ZM11,227L20,227L20,236L11,236ZM47,227L56,227L56,236L47,236ZM65,227L101,227L101,236L65,236ZM110,227L119,227L119,236L110,236ZM128,227L164,227L164,236L128,236ZM173,227L182,227L182,236L173,236ZM200,227L218,227L218,236L200,236ZM227,227L281,227L281,236L227,236ZM290,227L299,227L299,236L290,236ZM83,236L101,236L101,245L83,245ZM119,236L128,236L128,245L119,245ZM137,236L146,236L146,245L137,245ZM155,236L164,236L164,245L155,245ZM173,236L191,236L191,245L173,245ZM200,236L218,236L218,245L200,245ZM227,236L236,236L236,245L227,245ZM263,236L272,236L272,245L263,245ZM281,236L290,236L290,245L281,245ZM11,245L74,245L74,254L11,254ZM83,245L110,245L110,254L83,254ZM128,245L137,245L137,254L128,254ZM146,245L173,245L173,254L146,254ZM191,245L200,245L200,254L191,254ZM227,245L236,245L236,254L227,254ZM245,245L254,245L254,254L245,254ZM263,245L272,245L272,254L263,254ZM290,245L299,245L299,254L290,254ZM11,254L20,254L20,263L11,263ZM65,254L74,254L74,263L65,263ZM119,254L137,254L137,263L119,263ZM155,254L164,254L164,263L155,263ZM173,254L191,254L191,263L173,263ZM218,254L236,254L236,263L218,263ZM263,254L281,254L281,263L263,263ZM299,254L308,254L308,263L299,263ZM11,263L20,263L20,272L11,272ZM29,263L56,263L56,272L29,272ZM65,263L74,263L74,272L65,272ZM83,263L110,263L110,272L83,272ZM119,263L155,263L155,272L119,272ZM209,263L218,263L218,272L209,272ZM227,263L281,263L281,272L227,272ZM299,263L308,263L308,272L299,272ZM11,272L20,272L20,281L11,281ZM29,272L56,272L56,281L29,281ZM65,272L74,272L74,281L65,281ZM83,272L101,272L101,281L83,281ZM137,272L164,272L164,281L137,281ZM200,272L218,272L218,281L200,281ZM236,272L245,272L245,281L236,281ZM272,272L299,272L299,281L272,281ZM11,281L20,281L20,290L11,290ZM29,281L56,281L56,290L29,290ZM65,281L74,281L74,290L65,290ZM83,281L92,281L92,290L83,290ZM101,281L128,281L128,290L101,290ZM164,281L173,281L173,290L164,290ZM191,281L200,281L200,290L191,290ZM218,281L236,281L236,290L218,290ZM254,281L263,281L263,290L254,290ZM11,290L20,290L20,299L11,299ZM65,290L74,290L74,299L65,299ZM83,290L92,290L92,299L83,299ZM110,290L119,290L119,299L110,299ZM155,290L164,290L164,299L155,299ZM182,290L191,290L191,299L182,299ZM200,290L218,290L218,299L200,299ZM254,290L281,290L281,299L254,299ZM290,290L308,290L308,299L290,299ZM11,299L74,299L74,308L11,308ZM83,299L101,299L101,308L83,308ZM110,299L128,299L128,308L110,308ZM146,299L155,299L155,308L146,308ZM164,299L182,299L182,308L164,308ZM218,299L227,299L227,308L218,308ZM245,299L254,299L254,308L245,308ZM272,299L299,299L299,308L272,308Z"/></svg>
