<?xml version="1.0"?>
<svg xmlns="http://www.w3.org/2000/svg" xmlns:xlink="http://www.w3.org/1999/xlink" version="1.1" width="320px" height="320px" viewBox="0 0 320 320"><rect x="0" y="0" width="320" height="320" fill="#ffffff" fill-opacity="1"/><path fill="#000000" fill-opacity="1" d="M11,11L74,11L74,20L11,20ZM83,11L119,11L119,20L83,20ZM128,11L155,11L155,20L128,20ZM164,11L218,11L218,20L164,20ZM245,11L308,11L308,20L245,20ZM11,20L20,20L20,29L11,29ZM65,20L74,20L74,29L65,29ZM110,20L155,20L155,29L110,29ZM164,20L191,20L191,29L164,29ZM200,20L236,20L236,29L200,29ZM245,20L254,20L254,29L245,29ZM299,20L308,20L308,29L299,29ZM11,29L20,29L20,38L11,38ZM29,29L56,29L56,38L29,38ZM65,29L74,29L74,38L65,38ZM92,29L101,29L101,38L92,38ZM110,29L119,29L119,38L110,38ZM128,29L146,29L146,38L128,38ZM200,29L236,29L236,38L200,38ZM245,29L254,29L254,38L245,38ZM263,29L290,29L290,38L263,38ZM299,29L308,29L308,38L299,38ZM11,38L20,38L20,47L11,47ZM29,38L56,38L56,47L29,47ZM65,38L74,38L74,47L65,47ZM101,38L119,38L119,47L101,47ZM137,38L155,38L155,47L137,47ZM164,38L182,38L182,47L164,47ZM191,38L200,38L200,47L191,47ZM227,38L236,38L236,47L227,47ZM245,38L254,38L254,47L245,47ZM263,38L290,38L290,47L263,47ZM299,38L308,38L308,47L299,47ZM11,47L20,47L20,56L11,56ZM29,47L56,47L56,56L29,56ZM65,47L74,47L74,56L65,56ZM101,47L137,47L137,56L101,56ZM146,47L155,47L155,56L146,56ZM164,47L209,47L209,56L164,56ZM218,47L236,47L236,56L218,56ZM245,47L254,47L254,56L245,56ZM263,47L290,47L290,56L263,56ZM299,47L308,47L308,56L299,56ZM11,56L20,56L20,65L11,65ZM65,56L74,56L74,65L65,65ZM92,56L101,56L101,65L92,65ZM110,56L119,56L119,65L110,65ZM128,56L146,56L146,65L128,65ZM173,56L182,56L182,65L173,65ZM191,56L209,56L209,65L191,65ZM245,56L254,56L254,65L245,65ZM299,56L308,56L308,65L299,65ZM11,65L74,65L74,74L11,74ZM83,65L92,65L92,74L83,74ZM101,65L110,65L110,74L101,74ZM119,65L128,65L128,74L119,74ZM137,65L146,65L146,74L137,74ZM155,65L164,65L164,74L155,74ZM173,65L182,65L182,74L173,74ZM191,65L200,65L200,74L191,74ZM209,65L218,65L218,74L209,74ZM227,65L236,65L236,74L227,74ZM245,65L308,65L308,74L245,74ZM83,74L101,74L101,83L83,83ZM119,74L128,74L128,83L119,83ZM137,74L146,74L146,83L137,83ZM191,74L200,74L200,83L191,83ZM218,74L227,74L227,83L218,83ZM11,83L29,83L29,92L11,92ZM38,83L56,83L56,92L38,92ZM65,83L74,83L74,92L65,92ZM92,83L101,83L101,92L92,92ZM119,83L164,83L164,92L119,92ZM182,83L209,83L209,92L182,92ZM227,83L236,83L236,92L227,92ZM245,83L254,83L254,92L245,92ZM299,83L308,83L308,92L299,92ZM11,92L20,92L20,101L11,101ZM47,92L56,92L56,101L47,101ZM74,92L83,92L83,101L74,101ZM101,92L110,92L110,101L101,101ZM137,92L146,92L146,101L137,101ZM173,92L191,92L191,101L173,101ZM218,92L245,92L245,101L218,101ZM254,92L290,92L290,101L254,101ZM299,92L308,92L308,101L299,101ZM29,101L38,101L38,110L29,110ZM47,101L56,101L56,110L47,110ZM65,101L74,101L74,110L65,110ZM92,101L101,101L101,110L92,110ZM119,101L128,101L128,110L119,110ZM137,101L146,101L146,110L137,110ZM173,101L200,101L200,110L173,110ZM218,101L227,101L227,110L218,110ZM236,101L254,101L254,110L236,110ZM263,101L272,101L272,110L263,110ZM290,101L308,101L308,110L290,110ZM20,110L56,110L56,119L20,119ZM137,110L155,110L155,119L137,119ZM173,110L191,110L191,119L173,119ZM200,110L218,110L218,119L200,119ZM245,110L308,110L308,119L245,119ZM11,119L20,119L20,128L11,128ZM29,119L38,119L38,128L29,128ZM65,119L74,119L74,128L65,128ZM92,119L110,119L110,128L92,128ZM128,119L146,119L146,128L128,128ZM164,119L173,119L173,128L164,128ZM182,119L191,119L191,128L182,128ZM218,119L227,119L227,128L218,128ZM245,119L290,119L290,128L245,128ZM299,119L308,119L308,128L299,128ZM56,128L65,128L65,137L56,137ZM83,128L110,128L110,137L83,137ZM119,128L128,128L128,137L119,137ZM182,128L191,128L191,137L182,137ZM209,128L218,128L218,137L209,137ZM227,128L236,128L236,137L227,137ZM245,128L308,128L308,137L245,137ZM11,137L38,137L38,146L11,146ZM56,137L74,137L74,146L56,146ZM92,137L101,137L101,146L92,146ZM137,137L155,137L155,146L137,146ZM164,137L173,137L173,146L164,146ZM182,137L191,137L191,146L182,146ZM227,137L236,137L236,146L227,146ZM254,137L263,137L263,146L254,146ZM272,137L281,137L281,146L272,146ZM11,146L56,146L56,155L11,155ZM74,146L92,146L92,155L74,155ZM119,146L146,146L146,155L119,155ZM155,146L191,146L191,155L155,155ZM200,146L227,146L227,155L200,155ZM254,146L272,146L272,155L254,155ZM281,146L299,146L299,155L281,155ZM47,155L74,155L74,164L47,164ZM83,155L92,155L92,164L83,164ZM101,155L128,155L128,164L101,164ZM146,155L155,155L155,164L146,164ZM173,155L182,155L182,164L173,164ZM191,155L200,155L200,164L191,164ZM209,155L227,155L227,164L209,164ZM290,155L308,155L308,164L290,164ZM11,164L20,164L20,173L11,173ZM38,164L47,164L47,173L38,173ZM74,164L83,164L83,173L74,173ZM92,164L101,164L101,173L92,173ZM110,164L119,164L119,173L110,173ZM164,164L173,164L173,173L164,173ZM191,164L200,164L200,173L191,173ZM209,164L227,164L227,173L209,173ZM236,164L245,164L245,173L236,173ZM254,164L290,164L290,173L254,173ZM11,173L29,173L29,182L11,182ZM47,173L74,173L74,182L47,182ZM92,173L101,173L101,182L92,182ZM119,173L146,173L146,182L119,182ZM155,173L164,173L164,182L155,182ZM182,173L191,173L191,182L182,182ZM227,173L236,173L236,182L227,182ZM245,173L263,173L263,182L245,182ZM290,173L299,173L299,182L290,182ZM11,182L20,182L20,191L11,191ZM38,182L65,182L65,191L38,191ZM74,182L92,182L92,191L74,191ZM101,182L119,182L119,191L101,191ZM128,182L137,182L137,191L128,191ZM146,182L164,182L164,191L146,191ZM173,182L182,182L182,191L173,191ZM218,182L227,182L227,191L218,191ZM236,182L245,182L245,191L236,191ZM254,182L263,182L263,191L254,191ZM290,182L299,182L299,191L290,191ZM11,191L20,191L20,200L11,200ZM29,191L47,191L47,200L29,200ZM56,191L74,191L74,200L56,200ZM83,191L119,191L119,200L83,200ZM128,191L137,191L137,200L128,200ZM155,191L164,191L164,200L155,200ZM182,191L191,191L191,200L182,200ZM200,191L218,191L218,200L200,200ZM245,191L254,191L254,200L245,200ZM11,200L20,200L20,209L11,209ZM47,200L65,200L65,209L47,209ZM83,200L110,200L110,209L83,209ZM119,200L137,200L137,209L119,209ZM155,200L164,200L164,209L155,209ZM182,200L200,200L200,209L182,209ZM263,200L272,200L272,209L263,209ZM281,200L290,200L290,209L281,209ZM299,200L308,200L308,209L299,209ZM11,209L20,209L20,218L11,218ZM38,209L47,209L47,218L38,218ZM56,209L74,209L74,218L56,218ZM83,209L92,209L92,218L83,218ZM110,209L119,209L119,218L110,218ZM128,209L137,209L137,218L128,218ZM146,209L155,209L155,218L146,218ZM209,209L218,209L218,218L209,218ZM227,209L254,209L254,218L227,218ZM263,209L281,209L281,218L263,218ZM290,209L308,209L308,218L290,218ZM11,218L20,218L20,227L11,227ZM29,218L65,218L65,227L29,227ZM83,218L137,218L137,227L83,227ZM155,218L173,218L173,227L155,227ZM182,218L200,218L200,227L182,227ZM209,218L218,218L218,227L209,227ZM227,218L236,218L236,227L227,227ZM245,218L272,218L272,227L245,227ZM290,218L308,218L308,227L290,227ZM11,227L38,227L38,236L11,236ZM47,227L74,227L74,236L47,236ZM110,227L137,227L137,236L110,236ZM146,227L155,227L155,236L146,236ZM173,227L191,227L191,236L173,236ZM200,227L209,227L209,236L200,236ZM218,227L272,227L272,236L218,236ZM290,227L308,227L308,236L290,236ZM83,236L110,236L110,245L83,245ZM128,236L164,236L164,245L128,245ZM173,236L191,236L191,245L173,245ZM209,236L218,236L218,245L209,245ZM227,236L236,236L236,245L227,245ZM263,236L272,236L272,245L263,245ZM281,236L308,236L308,245L281,245ZM11,245L74,245L74,254L11,254ZM101,245L137,245L137,254L101,254ZM155,245L173,245L173,254L155,254ZM182,245L191,245L191,254L182,254ZM227,245L236,245L236,254L227,254ZM245,245L254,245L254,254L245,254ZM263,245L272,245L272,254L263,254ZM11,254L20,254L20,263L11,263ZM65,254L74,254L74,263L65,263ZM92,254L119,254L119,263L92,263ZM146,254L191,254L191,263L146,263ZM200,254L236,254L236,263L200,263ZM263,254L281,254L281,263L263,263ZM11,263L20,263L20,272L11,272ZM29,263L56,263L56,272L29,272ZM65,263L74,263L74,272L65,272ZM83,263L92,263L92,272L83,272ZM101,263L110,263L110,272L101,272ZM137,263L155,263L155,272L137,272ZM200,263L209,263L209,272L200,272ZM218,263L272,263L272,272L218,272ZM11,272L20,272L20,281L11,281ZM29,272L56,272L56,281L29,281ZM65,272L74,272L74,281L65,281ZM83,272L92,272L92,281L83,281ZM110,272L200,272L200,281L110,281ZM209,272L218,272L218,281L209,281ZM236,272L245,272L245,281L236,281ZM254,272L263,272L263,281L254,281ZM281,272L299,272L299,281L281,281ZM11,281L20,281L20,290L11,290ZM29,281L56,281L56,290L29,290ZM65,281L74,281L74,290L65,290ZM92,281L101,281L101,290L92,290ZM110,281L119,281L119,290L110,290ZM146,281L155,281L155,290L146,290ZM182,281L191,281L191,290L182,290ZM227,281L236,281L236,290L227,290ZM272,281L281,281L281,290L272,290ZM290,281L308,281L308,290L290,290ZM11,290L20,290L20,299L11,299ZM65,290L74,290L74,299L65,299ZM83,290L92,290L92,299L83,299ZM101,290L110,290L110,299L101,299ZM119,290L128,290L128,299L119,299ZM137,290L164,290L164,299L137,299ZM173,290L182,290L182,299L173,299ZM209,290L236,290L236,299L209,299ZM245,290L254,290L254,299L245,299ZM263,290L281,290L281,299L263,299ZM11,299L74,299L74,308L11,308ZM83,299L92,299L92,308L83,308ZM101,299L110,299L110,308L101,308ZM119,299L155,299L155,308L119,308ZM182,299L191,299L191,308L182,308ZM209,299L236,299L236,308L209,308ZM245,299L254,299L254,308L245,308ZM263,299L290,299L290,308L263,308Z"/></svg>
