<?xml version="1.0"?>
<svg xmlns="http://www.w3.org/2000/svg" xmlns:xlink="http://www.w3.org/1999/xlink" version="1.1" width="320px" height="320px" viewBox="0 0 320 320"><rect x="0" y="0" width="320" height="320" fill="#ffffff" fill-opacity="1"/><path fill="#000000" fill-opacity="1" d="M15,15L85,15L85,25L15,25ZM105,15L135,15L135,25L105,25ZM155,15L165,15L165,25L155,25ZM215,15L225,15L225,25L215,25ZM235,15L305,15L305,25L235,25ZM15,25L25,25L25,35L15,35ZM75,25L85,25L85,35L75,35ZM95,25L115,25L115,35L95,35ZM125,25L175,25L175,35L125,35ZM185,25L205,25L205,35L185,35ZM235,25L245,25L245,35L235,35ZM295,25L305,25L305,35L295,35ZM15,35L25,35L25,45L15,45ZM35,35L65,35L65,45L35,45ZM75,35L85,35L85,45L75,45ZM105,35L115,35L115,45L105,45ZM125,35L155,35L155,45L125,45ZM175,35L225,35L225,45L175,45ZM235,35L245,35L245,45L235,45ZM255,35L285,35L285,45L255,45ZM295,35L305,35L305,45L295,45ZM15,45L25,45L25,55L15,55ZM35,45L65,45L65,55L35,55ZM75,45L85,45L85,55L75,55ZM95,45L115,45L115,55L95,55ZM165,45L195,45L195,55L165,55ZM235,45L245,45L245,55L235,55ZM255,45L285,45L285,55L255,55ZM295,45L305,45L305,55L295,55ZM15,55L25,55L25,65L15,65ZM35,55L65,55L65,65L35,65ZM75,55L85,55L85,65L75,65ZM125,55L135,55L135,65L125,65ZM215,55L225,55L225,65L215,65ZM235,55L245,55L245,65L235,65ZM255,55L285,55L285,65L255,65ZM295,55L305,55L305,65L295,65ZM15,65L25,65L25,75L15,75ZM75,65L85,65L85,75L75,75ZM95,65L105,65L105,75L95,75ZM115,65L125,65L125,75L115,75ZM135,65L195,65L195,75L135,75ZM235,65L245,65L245,75L235,75ZM295,65L305,65L305,75L295,75ZM15,75L85,75L85,85L15,85ZM95,75L105,75L105,85L95,85ZM115,75L125,75L125,85L115,85ZM135,75L145,75L145,85L135,85ZM155,75L165,75L165,85L155,85ZM175,75L185,75L185,85L175,85ZM195,75L205,75L205,85L195,85ZM215,75L225,75L225,85L215,85ZM235,75L305,75L305,85L235,85ZM125,85L135,85L135,95L125,95ZM155,85L165,85L165,95L155,95ZM175,85L225,85L225,95L175,95ZM15,95L65,95L65,105L15,105ZM75,95L125,95L125,105L75,105ZM135,95L195,95L195,105L135,105ZM225,95L235,95L235,105L225,105ZM245,95L255,95L255,105L245,105ZM265,95L275,95L275,105L265,105ZM285,95L295,95L295,105L285,105ZM15,105L55,105L55,115L15,115ZM65,105L75,105L75,115L65,115ZM85,105L95,105L95,115L85,115ZM105,105L115,105L115,115L105,115ZM125,105L135,105L135,115L125,115ZM155,105L165,105L165,115L155,115ZM175,105L185,105L185,115L175,115ZM195,105L245,105L245,115L195,115ZM255,105L275,105L275,115L255,115ZM285,105L295,105L295,115L285,115ZM15,115L25,115L25,125L15,125ZM45,115L65,115L65,125L45,125ZM75,115L85,115L85,125L75,125ZM95,115L115,115L115,125L95,125ZM125,115L165,115L165,125L125,125ZM185,115L195,115L195,125L185,125ZM205,115L215,115L215,125L205,125ZM245,115L255,115L255,125L245,125ZM265,115L285,115L285,125L265,125ZM15,125L65,125L65,135L15,135ZM95,125L135,125L135,135L95,135ZM195,125L215,125L215,135L195,135ZM235,125L275,125L275,135L235,135ZM295,125L305,125L305,135L295,135ZM15,135L35,135L35,145L15,145ZM75,135L85,135L85,145L75,145ZM95,135L115,135L115,145L95,145ZM165,135L185,135L185,145L165,145ZM195,135L205,135L205,145L195,145ZM225,135L265,135L265,145L225,145ZM25,145L75,145L75,155L25,155ZM85,145L125,145L125,155L85,155ZM135,145L145,145L145,155L135,155ZM155,145L185,145L185,155L155,155ZM215,145L235,145L235,155L215,155ZM255,145L275,145L275,155L255,155ZM285,145L295,145L295,155L285,155ZM15,155L65,155L65,165L15,165ZM75,155L95,155L95,165L75,165ZM115,155L175,155L175,165L115,165ZM185,155L195,155L195,165L185,165ZM215,155L235,155L235,165L215,165ZM265,155L305,155L305,165L265,165ZM15,165L35,165L35,175L15,175ZM65,165L75,165L75,175L65,175ZM85,165L95,165L95,175L85,175ZM105,165L135,165L135,175L105,175ZM155,165L165,165L165,175L155,175ZM175,165L185,165L185,175L175,175ZM195,165L215,165L215,175L195,175ZM225,165L265,165L265,175L225,175ZM285,165L305,165L305,175L285,175ZM15,175L25,175L25,185L15,185ZM55,175L105,175L105,185L55,185ZM135,175L155,175L155,185L135,185ZM165,175L175,175L175,185L165,185ZM215,175L225,175L225,185L215,185ZM235,175L265,175L265,185L235,185ZM15,185L55,185L55,195L15,195ZM165,185L185,185L185,195L165,195ZM215,185L255,185L255,195L215,195ZM265,185L275,185L275,195L265,195ZM15,195L25,195L25,205L15,205ZM65,195L85,195L85,205L65,205ZM95,195L105,195L105,205L95,205ZM115,195L195,195L195,205L115,205ZM215,195L225,195L225,205L215,205ZM265,195L295,195L295,205L265,205ZM15,205L25,205L25,215L15,215ZM45,205L65,205L65,215L45,215ZM85,205L95,205L95,215L85,215ZM105,205L115,205L115,215L105,215ZM125,205L135,205L135,215L125,215ZM145,205L165,205L165,215L145,215ZM175,205L215,205L215,215L175,215ZM225,205L265,205L265,215L225,215ZM295,205L305,205L305,215L295,215ZM15,215L25,215L25,225L15,225ZM35,215L45,215L45,225L35,225ZM75,215L85,215L85,225L75,225ZM105,215L115,215L115,225L105,225ZM145,215L155,215L155,225L145,225ZM165,215L175,215L175,225L165,225ZM195,215L205,215L205,225L195,225ZM215,215L295,215L295,225L215,225ZM95,225L105,225L105,235L95,235ZM125,225L145,225L145,235L125,235ZM195,225L205,225L205,235L195,235ZM215,225L225,225L225,235L215,235ZM255,225L265,225L265,235L255,235ZM285,225L295,225L295,235L285,235ZM15,235L85,235L85,245L15,245ZM95,235L125,235L125,245L95,245ZM145,235L195,235L195,245L145,245ZM205,235L225,235L225,245L205,245ZM235,235L245,235L245,245L235,245ZM255,235L285,235L285,245L255,245ZM15,245L25,245L25,255L15,255ZM75,245L85,245L85,255L75,255ZM115,245L135,245L135,255L115,255ZM155,245L165,245L165,255L155,255ZM175,245L185,245L185,255L175,255ZM205,245L225,245L225,255L205,255ZM255,245L265,245L265,255L255,255ZM275,245L305,245L305,255L275,255ZM15,255L25,255L25,265L15,265ZM35,255L65,255L65,265L35,265ZM75,255L85,255L85,265L75,265ZM95,255L105,255L105,265L95,265ZM145,255L155,255L155,265L145,265ZM165,255L205,255L205,265L165,265ZM215,255L265,255L265,265L215,265ZM275,255L305,255L305,265L275,265ZM15,265L25,265L25,275L15,275ZM35,265L65,265L65,275L35,275ZM75,265L85,265L85,275L75,275ZM95,265L115,265L115,275L95,275ZM165,265L185,265L185,275L165,275ZM195,265L225,265L225,275L195,275ZM245,265L255,265L255,275L245,275ZM15,275L25,275L25,285L15,285ZM35,275L65,275L65,285L35,285ZM75,275L85,275L85,285L75,285ZM95,275L115,275L115,285L95,285ZM135,275L175,275L175,285L135,285ZM185,275L195,275L195,285L185,285ZM205,275L215,275L215,285L205,285ZM225,275L235,275L235,285L225,285ZM245,275L255,275L255,285L245,285ZM275,275L295,275L295,285L275,285ZM15,285L25,285L25,295L15,295ZM75,285L85,285L85,295L75,295ZM95,285L105,285L105,295L95,295ZM115,285L135,285L135,295L115,295ZM145,285L155,285L155,295L145,295ZM175,285L185,285L185,295L175,295ZM205,285L215,285L215,295L205,295ZM265,285L285,285L285,295L265,295ZM295,285L305,285L305,295L295,295ZM15,295L85,295L85,305L15,305ZM95,295L125,295L125,305L95,305ZM165,295L195,295L195,305L165,305ZM205,295L215,295L215,305L205,305ZM225,295L245,295L245,305L225,305ZM255,295L285,295L285,305L255,305Z"/></svg>
