<?xml version="1.0"?>
<svg xmlns="http://www.w3.org/2000/svg" xmlns:xlink="http://www.w3.org/1999/xlink" version="1.1" width="320px" height="320px" viewBox="0 0 320 320"><rect x="0" y="0" width="320" height="320" fill="#ffffff" fill-opacity="1"/><path fill="#000000" fill-opacity="1" d="M11,11L74,11L74,20L11,20ZM92,11L101,11L101,20L92,20ZM146,11L164,11L164,20L146,20ZM200,11L209,11L209,20L200,20ZM218,11L227,11L227,20L218,20ZM245,11L308,11L308,20L245,20ZM11,20L20,20L20,29L11,29ZM65,20L74,20L74,29L65,29ZM83,20L101,20L101,29L83,29ZM110,20L128,20L128,29L110,29ZM164,20L173,20L173,29L164,29ZM209,20L236,20L236,29L209,29ZM245,20L254,20L254,29L245,29ZM299,20L308,20L308,29L299,29ZM11,29L20,29L20,38L11,38ZM29,29L56,29L56,38L29,38ZM65,29L74,29L74,38L65,38ZM92,29L119,29L119,38L92,38ZM137,29L146,29L146,38L137,38ZM155,29L164,29L164,38L155,38ZM173,29L209,29L209,38L173,38ZM218,29L236,29L236,38L218,38ZM245,29L254,29L254,38L245,38ZM263,29L290,29L290,38L263,38ZM299,29L308,29L308,38L299,38ZM11,38L20,38L20,47L11,47ZM29,38L56,38L56,47L29,47ZM65,38L74,38L74,47L65,47ZM83,38L101,38L101,47L83,47ZM110,38L119,38L119,47L110,47ZM200,38L218,38L218,47L200,47ZM227,38L236,38L236,47L227,47ZM245,38L254,38L254,47L245,47ZM263,38L290,38L290,47L263,47ZM299,38L308,38L308,47L299,47ZM11,47L20,47L20,56L11,56ZM29,47L56,47L56,56L29,56ZM65,47L74,47L74,56L65,56ZM101,47L110,47L110,56L101,56ZM119,47L155,47L155,56L119,56ZM182,47L209,47L209,56L182,56ZM227,47L236,47L236,56L227,56ZM245,47L254,47L254,56L245,56ZM263,47L290,47L290,56L263,56ZM299,47L308,47L308,56L299,56ZM11,56L20,56L20,65L11,65ZM65,56L74,56L74,65L65,65ZM83,56L92,56L92,65L83,65ZM101,56L110,56L110,65L101,65ZM128,56L155,56L155,65L128,65ZM164,56L173,56L173,65L164,65ZM182,56L191,56L191,65L182,65ZM209,56L227,56L227,65L209,65ZM245,56L254,56L254,65L245,65ZM299,56L308,56L308,65L299,65ZM11,65L74,65L74,74L11,74ZM83,65L92,65L92,74L83,74ZM101,65L110,65L110,74L101,74ZM119,65L128,65L128,74L119,74ZM137,65L146,65L146,74L137,74ZM155,65L164,65L164,74L155,74ZM173,65L182,65L182,74L173,74ZM191,65L200,65L200,74L191,74ZM209,65L218,65L218,74L209,74ZM227,65L236,65L236,74L227,74ZM245,65L308,65L308,74L245,74ZM119,74L137,74L137,83L119,83ZM146,74L155,74L155,83L146,83ZM164,74L209,74L209,83L164,83ZM218,74L227,74L227,83L218,83ZM11,83L56,83L56,92L11,92ZM65,83L110,83L110,92L65,92ZM119,83L128,83L128,92L119,92ZM137,83L155,83L155,92L137,92ZM173,83L182,83L182,92L173,92ZM191,83L218,83L218,92L191,92ZM227,83L245,83L245,92L227,92ZM254,83L263,83L263,92L254,92ZM272,83L281,83L281,92L272,92ZM290,83L299,83L299,92L290,92ZM11,92L20,92L20,101L11,101ZM47,92L56,92L56,101L47,101ZM83,92L101,92L101,101L83,101ZM146,92L155,92L155,101L146,101ZM173,92L182,92L182,101L173,101ZM191,92L254,92L254,101L191,101ZM272,92L290,92L290,101L272,101ZM20,101L74,101L74,110L20,110ZM92,101L101,101L101,110L92,110ZM110,101L128,101L128,110L110,110ZM146,101L173,101L173,110L146,110ZM182,101L200,101L200,110L182,110ZM236,101L245,101L245,110L236,110ZM263,101L281,101L281,110L263,110ZM290,101L299,101L299,110L290,110ZM11,110L20,110L20,119L11,119ZM38,110L56,110L56,119L38,119ZM74,110L119,110L119,119L74,119ZM137,110L146,110L146,119L137,119ZM182,110L191,110L191,119L182,119ZM218,110L227,110L227,119L218,119ZM245,110L254,110L254,119L245,119ZM281,110L308,110L308,119L281,119ZM11,119L20,119L20,128L11,128ZM29,119L47,119L47,128L29,128ZM65,119L101,119L101,128L65,128ZM110,119L119,119L119,128L110,128ZM146,119L182,119L182,128L146,128ZM191,119L200,119L200,128L191,128ZM209,119L218,119L218,128L209,128ZM236,119L245,119L245,128L236,128ZM254,119L263,119L263,128L254,128ZM281,119L299,119L299,128L281,128ZM38,128L56,128L56,137L38,137ZM101,128L110,128L110,137L101,137ZM119,128L155,128L155,137L119,137ZM173,128L182,128L182,137L173,137ZM191,128L218,128L218,137L191,137ZM227,128L245,128L245,137L227,137ZM263,128L290,128L290,137L263,137ZM11,137L47,137L47,146L11,146ZM56,137L83,137L83,146L56,146ZM101,137L110,137L110,146L101,146ZM128,137L173,137L173,146L128,146ZM227,137L245,137L245,146L227,146ZM254,137L281,137L281,146L254,146ZM290,137L299,137L299,146L290,146ZM56,146L65,146L65,155L56,155ZM74,146L101,146L101,155L74,155ZM119,146L137,146L137,155L119,155ZM182,146L200,146L200,155L182,155ZM209,146L227,146L227,155L209,155ZM245,146L254,146L254,155L245,155ZM281,146L308,146L308,155L281,155ZM20,155L47,155L47,164L20,164ZM65,155L74,155L74,164L65,164ZM119,155L128,155L128,164L119,164ZM137,155L155,155L155,164L137,164ZM164,155L173,155L173,164L164,164ZM209,155L218,155L218,164L209,164ZM245,155L254,155L254,164L245,164ZM272,155L281,155L281,164L272,164ZM290,155L299,155L299,164L290,164ZM29,164L65,164L65,173L29,173ZM83,164L110,164L110,173L83,173ZM146,164L164,164L164,173L146,173ZM200,164L218,164L218,173L200,173ZM236,164L245,164L245,173L236,173ZM281,164L290,164L290,173L281,173ZM11,173L29,173L29,182L11,182ZM47,173L83,173L83,182L47,182ZM92,173L101,173L101,182L92,182ZM110,173L128,173L128,182L110,182ZM146,173L173,173L173,182L146,182ZM191,173L200,173L200,182L191,182ZM209,173L245,173L245,182L209,182ZM254,173L281,173L281,182L254,182ZM299,173L308,173L308,182L299,182ZM38,182L47,182L47,191L38,191ZM74,182L83,182L83,191L74,191ZM92,182L119,182L119,191L92,191ZM137,182L146,182L146,191L137,191ZM173,182L227,182L227,191L173,191ZM245,182L254,182L254,191L245,191ZM299,182L308,182L308,191L299,191ZM20,191L29,191L29,200L20,200ZM65,191L74,191L74,200L65,200ZM92,191L119,191L119,200L92,200ZM146,191L164,191L164,200L146,200ZM191,191L209,191L209,200L191,200ZM236,191L254,191L254,200L236,200ZM263,191L272,191L272,200L263,200ZM290,191L299,191L299,200L290,200ZM11,200L20,200L20,209L11,209ZM29,200L38,200L38,209L29,209ZM56,200L65,200L65,209L56,209ZM83,200L101,200L101,209L83,209ZM119,200L164,200L164,209L119,209ZM200,200L209,200L209,209L200,209ZM245,200L263,200L263,209L245,209ZM281,200L290,200L290,209L281,209ZM11,209L20,209L20,218L11,218ZM29,209L74,209L74,218L29,218ZM101,209L110,209L110,218L101,218ZM128,209L146,209L146,218L128,218ZM155,209L173,209L173,218L155,218ZM182,209L200,209L200,218L182,218ZM209,209L245,209L245,218L209,218ZM263,209L272,209L272,218L263,218ZM299,209L308,209L308,218L299,218ZM11,218L20,218L20,227L11,227ZM29,218L56,218L56,227L29,227ZM74,218L101,218L101,227L74,227ZM119,218L137,218L137,227L119,227ZM182,218L200,218L200,227L182,227ZM218,218L236,218L236,227L218,227ZM245,218L254,218L254,227L245,227ZM272,218L281,218L281,227L272,227ZM290,218L308,218L308,227L290,227ZM11,227L20,227L20,236L11,236ZM29,227L38,227L38,236L29,236ZM47,227L56,227L56,236L47,236ZM65,227L110,227L110,236L65,236ZM119,227L128,227L128,236L119,236ZM137,227L155,227L155,236L137,236ZM164,227L182,227L182,236L164,236ZM209,227L218,227L218,236L209,236ZM227,227L281,227L281,236L227,236ZM83,236L92,236L92,245L83,245ZM101,236L110,236L110,245L101,245ZM146,236L155,236L155,245L146,245ZM173,236L182,236L182,245L173,245ZM191,236L218,236L218,245L191,245ZM227,236L236,236L236,245L227,245ZM263,236L272,236L272,245L263,245ZM281,236L290,236L290,245L281,245ZM11,245L74,245L74,254L11,254ZM83,245L92,245L92,254L83,254ZM110,245L128,245L128,254L110,254ZM146,245L173,245L173,254L146,254ZM191,245L200,245L200,254L191,254ZM209,245L218,245L218,254L209,254ZM227,245L236,245L236,254L227,254ZM245,245L254,245L254,254L245,254ZM263,245L272,245L272,254L263,254ZM290,245L299,245L299,254L290,254ZM11,254L20,254L20,263L11,263ZM65,254L74,254L74,263L65,263ZM92,254L119,254L119,263L92,263ZM137,254L146,254L146,263L137,263ZM155,254L164,254L164,263L155,263ZM182,254L236,254L236,263L182,263ZM263,254L281,254L281,263L263,263ZM299,254L308,254L308,263L299,263ZM11,263L20,263L20,272L11,272ZM29,263L56,263L56,272L29,272ZM65,263L74,263L74,272L65,272ZM83,263L92,263L92,272L83,272ZM110,263L119,263L119,272L110,272ZM146,263L155,263L155,272L146,272ZM191,263L200,263L200,272L191,272ZM227,263L281,263L281,272L227,272ZM299,263L308,263L308,272L299,272ZM11,272L20,272L20,281L11,281ZM29,272L56,272L56,281L29,281ZM65,272L74,272L74,281L65,281ZM83,272L92,272L92,281L83,281ZM119,272L146,272L146,281L119,281ZM155,272L164,272L164,281L155,281ZM173,272L227,272L227,281L173,281ZM236,272L245,272L245,281L236,281ZM263,272L299,272L299,281L263,281ZM11,281L20,281L20,290L11,290ZM29,281L56,281L56,290L29,290ZM65,281L74,281L74,290L65,290ZM83,281L110,281L110,290L83,290ZM128,281L155,281L155,290L128,290ZM164,281L173,281L173,290L164,290ZM182,281L200,281L200,290L182,290ZM209,281L254,281L254,290L209,290ZM263,281L272,281L272,290L263,290ZM11,290L20,290L20,299L11,299ZM65,290L74,290L74,299L65,299ZM83,290L110,290L110,299L83,299ZM119,290L137,290L137,299L119,299ZM173,290L182,290L182,299L173,299ZM191,290L245,290L245,299L191,299ZM254,290L281,290L281,299L254,299ZM290,290L308,290L308,299L290,299ZM11,299L74,299L74,308L11,308ZM83,299L101,299L101,308L83,308ZM119,299L128,299L128,308L119,308ZM137,299L164,299L164,308L137,308ZM200,299L254,299L254,308L200,308ZM272,299L299,299L299,308L272,308Z"/></svg>
