<?xml version="1.0"?>
<svg xmlns="http://www.w3.org/2000/svg" xmlns:xlink="http://www.w3.org/1999/xlink" version="1.1" width="320px" height="320px" viewBox="0 0 320 320"><rect x="0" y="0" width="320" height="320" fill="#ffffff" fill-opacity="1"/><path fill="#000000" fill-opacity="1" d="M11,11L74,11L74,20L11,20ZM101,11L110,11L110,20L101,20ZM119,11L155,11L155,20L119,20ZM173,11L182,11L182,20L173,20ZM191,11L209,11L209,20L191,20ZM227,11L236,11L236,20L227,20ZM245,11L308,11L308,20L245,20ZM11,20L20,20L20,29L11,29ZM65,20L74,20L74,29L65,29ZM83,20L92,20L92,29L83,29ZM101,20L110,20L110,29L101,29ZM128,20L173,20L173,29L128,29ZM182,20L191,20L191,29L182,29ZM209,20L236,20L236,29L209,29ZM245,20L254,20L254,29L245,29ZM299,20L308,20L308,29L299,29ZM11,29L20,29L20,38L11,38ZM29,29L56,29L56,38L29,38ZM65,29L74,29L74,38L65,38ZM119,29L137,29L137,38L119,38ZM146,29L155,29L155,38L146,38ZM164,29L227,29L227,38L164,38ZM245,29L254,29L254,38L245,38ZM263,29L290,29L290,38L263,38ZM299,29L308,29L308,38L299,38ZM11,38L20,38L20,47L11,47ZM29,38L56,38L56,47L29,47ZM65,38L74,38L74,47L65,47ZM83,38L110,38L110,47L83,47ZM119,38L128,38L128,47L119,47ZM137,38L155,38L155,47L137,47ZM173,38L182,38L182,47L173,47ZM245,38L254,38L254,47L245,47ZM263,38L290,38L290,47L263,47ZM299,38L308,38L308,47L299,47ZM11,47L20,47L20,56L11,56ZM29,47L56,47L56,56L29,56ZM65,47L74,47L74,56L65,56ZM92,47L101,47L101,56L92,56ZM146,47L164,47L164,56L146,56ZM191,47L209,47L209,56L191,56ZM245,47L254,47L254,56L245,56ZM263,47L290,47L290,56L263,56ZM299,47L308,47L308,56L299,56ZM11,56L20,56L20,65L11,65ZM65,56L74,56L74,65L65,65ZM83,56L101,56L101,65L83,65ZM110,56L128,56L128,65L110,65ZM164,56L173,56L173,65L164,65ZM191,56L200,56L200,65L191,65ZM209,56L218,56L218,65L209,65ZM227,56L236,56L236,65L227,65ZM245,56L254,56L254,65L245,65ZM299,56L308,56L308,65L299,65ZM11,65L74,65L74,74L11,74ZM83,65L92,65L92,74L83,74ZM101,65L110,65L110,74L101,74ZM119,65L128,65L128,74L119,74ZM137,65L146,65L146,74L137,74ZM155,65L164,65L164,74L155,74ZM173,65L182,65L182,74L173,74ZM191,65L200,65L200,74L191,74ZM209,65L218,65L218,74L209,74ZM227,65L236,65L236,74L227,74ZM245,65L308,65L308,74L245,74ZM92,74L119,74L119,83L92,83ZM137,74L146,74L146,83L137,83ZM155,74L227,74L227,83L155,83ZM11,83L56,83L56,92L11,92ZM65,83L101,83L101,92L65,92ZM110,83L119,83L119,92L110,92ZM164,83L173,83L173,92L164,92ZM191,83L200,83L200,92L191,92ZM209,83L218,83L218,92L209,92ZM236,83L245,83L245,92L236,92ZM254,83L263,83L263,92L254,92ZM272,83L281,83L281,92L272,92ZM290,83L299,83L299,92L290,92ZM20,92L38,92L38,101L20,101ZM47,92L56,92L56,101L47,101ZM101,92L110,92L110,101L101,101ZM119,92L155,92L155,101L119,101ZM173,92L218,92L218,101L173,101ZM227,92L236,92L236,101L227,101ZM272,92L290,92L290,101L272,101ZM20,101L38,101L38,110L20,110ZM56,101L74,101L74,110L56,110ZM101,101L110,101L110,110L101,110ZM128,101L155,101L155,110L128,110ZM164,101L173,101L173,110L164,110ZM182,101L191,101L191,110L182,110ZM209,101L218,101L218,110L209,110ZM227,101L245,101L245,110L227,110ZM254,101L281,101L281,110L254,110ZM290,101L299,101L299,110L290,110ZM11,110L29,110L29,119L11,119ZM47,110L56,110L56,119L47,119ZM74,110L83,110L83,119L74,119ZM119,110L137,110L137,119L119,119ZM146,110L155,110L155,119L146,119ZM173,110L209,110L209,119L173,119ZM218,110L227,110L227,119L218,119ZM245,110L254,110L254,119L245,119ZM281,110L308,110L308,119L281,119ZM11,119L20,119L20,128L11,128ZM38,119L56,119L56,128L38,128ZM65,119L74,119L74,128L65,128ZM83,119L110,119L110,128L83,128ZM119,119L128,119L128,128L119,128ZM137,119L173,119L173,128L137,128ZM200,119L218,119L218,128L200,128ZM227,119L245,119L245,128L227,128ZM254,119L272,119L272,128L254,128ZM281,119L299,119L299,128L281,128ZM20,128L29,128L29,137L20,137ZM56,128L65,128L65,137L56,137ZM155,128L164,128L164,137L155,137ZM182,128L191,128L191,137L182,137ZM200,128L227,128L227,137L200,137ZM236,128L245,128L245,137L236,137ZM263,128L290,128L290,137L263,137ZM20,137L29,137L29,146L20,146ZM38,137L47,137L47,146L38,146ZM56,137L74,137L74,146L56,146ZM83,137L128,137L128,146L83,146ZM164,137L182,137L182,146L164,146ZM191,137L200,137L200,146L191,146ZM209,137L245,137L245,146L209,146ZM254,137L281,137L281,146L254,146ZM290,137L299,137L299,146L290,146ZM11,146L20,146L20,155L11,155ZM29,146L38,146L38,155L29,155ZM47,146L65,146L65,155L47,155ZM83,146L92,146L92,155L83,155ZM110,146L119,146L119,155L110,155ZM137,146L146,146L146,155L137,155ZM164,146L227,146L227,155L164,155ZM236,146L263,146L263,155L236,155ZM281,146L308,146L308,155L281,155ZM20,155L83,155L83,164L20,164ZM110,155L119,155L119,164L110,164ZM146,155L155,155L155,164L146,164ZM191,155L200,155L200,164L191,164ZM236,155L245,155L245,164L236,164ZM254,155L263,155L263,164L254,164ZM272,155L281,155L281,164L272,164ZM290,155L299,155L299,164L290,164ZM11,164L20,164L20,173L11,173ZM56,164L65,164L65,173L56,173ZM101,164L110,164L110,173L101,173ZM119,164L146,164L146,173L119,173ZM155,164L164,164L164,173L155,173ZM191,164L209,164L209,173L191,173ZM218,164L227,164L227,173L218,173ZM245,164L272,164L272,173L245,173ZM281,164L290,164L290,173L281,173ZM20,173L83,173L83,182L20,182ZM92,173L110,173L110,182L92,182ZM128,173L146,173L146,182L128,182ZM164,173L173,173L173,182L164,182ZM182,173L191,173L191,182L182,182ZM209,173L236,173L236,182L209,182ZM263,173L281,173L281,182L263,182ZM299,173L308,173L308,182L299,182ZM20,182L38,182L38,191L20,191ZM119,182L137,182L137,191L119,191ZM155,182L164,182L164,191L155,191ZM182,182L191,182L191,191L182,191ZM200,182L254,182L254,191L200,191ZM299,182L308,182L308,191L299,191ZM11,191L20,191L20,200L11,200ZM29,191L56,191L56,200L29,200ZM65,191L74,191L74,200L65,200ZM83,191L92,191L92,200L83,200ZM119,191L128,191L128,200L119,200ZM137,191L164,191L164,200L137,200ZM173,191L182,191L182,200L173,200ZM200,191L218,191L218,200L200,200ZM236,191L245,191L245,200L236,200ZM254,191L272,191L272,200L254,200ZM290,191L299,191L299,200L290,200ZM11,200L29,200L29,209L11,209ZM47,200L65,200L65,209L47,209ZM74,200L101,200L101,209L74,209ZM146,200L155,200L155,209L146,209ZM173,200L182,200L182,209L173,209ZM191,200L209,200L209,209L191,209ZM236,200L245,200L245,209L236,209ZM254,200L263,200L263,209L254,209ZM281,200L308,200L308,209L281,209ZM11,209L20,209L20,218L11,218ZM29,209L38,209L38,218L29,218ZM47,209L92,209L92,218L47,218ZM101,209L128,209L128,218L101,218ZM164,209L173,209L173,218L164,218ZM191,209L200,209L200,218L191,218ZM209,209L218,209L218,218L209,218ZM227,209L236,209L236,218L227,218ZM263,209L272,209L272,218L263,218ZM290,209L299,209L299,218L290,218ZM11,218L20,218L20,227L11,227ZM29,218L38,218L38,227L29,227ZM47,218L56,218L56,227L47,227ZM74,218L83,218L83,227L74,227ZM101,218L119,218L119,227L101,227ZM137,218L146,218L146,227L137,227ZM155,218L164,218L164,227L155,227ZM173,218L191,218L191,227L173,227ZM200,218L209,218L209,227L200,227ZM218,218L227,218L227,227L218,227ZM236,218L254,218L254,227L236,227ZM272,218L281,218L281,227L272,227ZM290,218L308,218L308,227L290,227ZM11,227L20,227L20,236L11,236ZM29,227L56,227L56,236L29,236ZM65,227L83,227L83,236L65,236ZM92,227L119,227L119,236L92,236ZM146,227L164,227L164,236L146,236ZM200,227L218,227L218,236L200,236ZM227,227L281,227L281,236L227,236ZM83,236L101,236L101,245L83,245ZM119,236L164,236L164,245L119,245ZM182,236L191,236L191,245L182,245ZM200,236L218,236L218,245L200,245ZM227,236L236,236L236,245L227,245ZM263,236L272,236L272,245L263,245ZM281,236L290,236L290,245L281,245ZM11,245L74,245L74,254L11,254ZM83,245L110,245L110,254L83,254ZM128,245L155,245L155,254L128,254ZM164,245L173,245L173,254L164,254ZM191,245L200,245L200,254L191,254ZM227,245L236,245L236,254L227,254ZM245,245L254,245L254,254L245,254ZM263,245L272,245L272,254L263,254ZM290,245L299,245L299,254L290,254ZM11,254L20,254L20,263L11,263ZM65,254L74,254L74,263L65,263ZM101,254L110,254L110,263L101,263ZM119,254L137,254L137,263L119,263ZM155,254L164,254L164,263L155,263ZM182,254L191,254L191,263L182,263ZM218,254L236,254L236,263L218,263ZM263,254L281,254L281,263L263,263ZM299,254L308,254L308,263L299,263ZM11,263L20,263L20,272L11,272ZM29,263L56,263L56,272L29,272ZM65,263L74,263L74,272L65,272ZM83,263L101,263L101,272L83,272ZM119,263L128,263L128,272L119,272ZM137,263L182,263L182,272L137,272ZM209,263L218,263L218,272L209,272ZM227,263L281,263L281,272L227,272ZM299,263L308,263L308,272L299,272ZM11,272L20,272L20,281L11,281ZM29,272L56,272L56,281L29,281ZM65,272L74,272L74,281L65,281ZM83,272L92,272L92,281L83,281ZM155,272L164,272L164,281L155,281ZM173,272L182,272L182,281L173,281ZM200,272L218,272L218,281L200,281ZM236,272L245,272L245,281L236,281ZM272,272L299,272L299,281L272,281ZM11,281L20,281L20,290L11,290ZM29,281L56,281L56,290L29,290ZM65,281L74,281L74,290L65,290ZM83,281L128,281L128,290L83,290ZM146,281L173,281L173,290L146,290ZM191,281L200,281L200,290L191,290ZM218,281L236,281L236,290L218,290ZM254,281L263,281L263,290L254,290ZM11,290L20,290L20,299L11,299ZM65,290L74,290L74,299L65,299ZM83,290L101,290L101,299L83,299ZM110,290L119,290L119,299L110,299ZM137,290L146,290L146,299L137,299ZM155,290L191,290L191,299L155,299ZM200,290L218,290L218,299L200,299ZM254,290L281,290L281,299L254,299ZM290,290L308,290L308,299L290,299ZM11,299L74,299L74,308L11,308ZM83,299L119,299L119,308L83,308ZM146,299L155,299L155,308L146,308ZM218,299L227,299L227,308L218,308ZM245,299L254,299L254,308L245,308ZM272,299L299,299L299,308L272,308Z"/></svg>
