<?xml version="1.0"?>
<svg xmlns="http://www.w3.org/2000/svg" xmlns:xlink="http://www.w3.org/1999/xlink" version="1.1" width="320px" height="320px" viewBox="0 0 320 320"><rect x="0" y="0" width="320" height="320" fill="#ffffff" fill-opacity="1"/><path fill="#000000" fill-opacity="1" d="M11,11L74,11L74,20L11,20ZM92,11L101,11L101,20L92,20ZM137,11L146,11L146,20L137,20ZM173,11L191,11L191,20L173,20ZM200,11L209,11L209,20L200,20ZM218,11L227,11L227,20L218,20ZM245,11L308,11L308,20L245,20ZM11,20L20,20L20,29L11,29ZM65,20L74,20L74,29L65,29ZM83,20L101,20L101,29L83,29ZM110,20L155,20L155,29L110,29ZM164,20L173,20L173,29L164,29ZM191,20L200,20L200,29L191,29ZM209,20L236,20L236,29L209,29ZM245,20L254,20L254,29L245,29ZM299,20L308,20L308,29L299,29ZM11,29L20,29L20,38L11,38ZM29,29L56,29L56,38L29,38ZM65,29L74,29L74,38L65,38ZM92,29L119,29L119,38L92,38ZM128,29L137,29L137,38L128,38ZM155,29L164,29L164,38L155,38ZM173,29L209,29L209,38L173,38ZM218,29L236,29L236,38L218,38ZM245,29L254,29L254,38L245,38ZM263,29L290,29L290,38L263,38ZM299,29L308,29L308,38L299,38ZM11,38L20,38L20,47L11,47ZM29,38L56,38L56,47L29,47ZM65,38L74,38L74,47L65,47ZM83,38L101,38L101,47L83,47ZM110,38L119,38L119,47L110,47ZM128,38L137,38L137,47L128,47ZM146,38L164,38L164,47L146,47ZM173,38L182,38L182,47L173,47ZM191,38L218,38L218,47L191,47ZM227,38L236,38L236,47L227,47ZM245,38L254,38L254,47L245,47ZM263,38L290,38L290,47L263,47ZM299,38L308,38L308,47L299,47ZM11,47L20,47L20,56L11,56ZM29,47L56,47L56,56L29,56ZM65,47L74,47L74,56L65,56ZM101,47L110,47L110,56L101,56ZM119,47L128,47L128,56L119,56ZM137,47L146,47L146,56L137,56ZM155,47L164,47L164,56L155,56ZM182,47L209,47L209,56L182,56ZM227,47L236,47L236,56L227,56ZM245,47L254,47L254,56L245,56ZM263,47L290,47L290,56L263,56ZM299,47L308,47L308,56L299,56ZM11,56L20,56L20,65L11,65ZM65,56L74,56L74,65L65,65ZM83,56L92,56L92,65L83,65ZM101,56L110,56L110,65L101,65ZM128,56L146,56L146,65L128,65ZM164,56L173,56L173,65L164,65ZM209,56L227,56L227,65L209,65ZM245,56L254,56L254,65L245,65ZM299,56L308,56L308,65L299,65ZM11,65L74,65L74,74L11,74ZM83,65L92,65L92,74L83,74ZM101,65L110,65L110,74L101,74ZM119,65L128,65L128,74L119,74ZM137,65L146,65L146,74L137,74ZM155,65L164,65L164,74L155,74ZM173,65L182,65L182,74L173,74ZM191,65L200,65L200,74L191,74ZM209,65L218,65L218,74L209,74ZM227,65L236,65L236,74L227,74ZM245,65L308,65L308,74L245,74ZM119,74L128,74L128,83L119,83ZM155,74L164,74L164,83L155,83ZM182,74L209,74L209,83L182,83ZM218,74L227,74L227,83L218,83ZM11,83L56,83L56,92L11,92ZM65,83L110,83L110,92L65,92ZM119,83L128,83L128,92L119,92ZM137,83L155,83L155,92L137,92ZM191,83L218,83L218,92L191,92ZM227,83L245,83L245,92L227,92ZM254,83L263,83L263,92L254,92ZM272,83L281,83L281,92L272,92ZM290,83L299,83L299,92L290,92ZM11,92L29,92L29,101L11,101ZM47,92L56,92L56,101L47,101ZM74,92L83,92L83,101L74,101ZM92,92L101,92L101,101L92,101ZM137,92L146,92L146,101L137,101ZM182,92L254,92L254,101L182,101ZM272,92L290,92L290,101L272,101ZM11,101L38,101L38,110L11,110ZM47,101L56,101L56,110L47,110ZM65,101L74,101L74,110L65,110ZM92,101L101,101L101,110L92,110ZM110,101L173,101L173,110L110,110ZM182,101L191,101L191,110L182,110ZM236,101L245,101L245,110L236,110ZM263,101L281,101L281,110L263,110ZM290,101L299,101L299,110L290,110ZM11,110L29,110L29,119L11,119ZM47,110L56,110L56,119L47,119ZM92,110L119,110L119,119L92,119ZM128,110L137,110L137,119L128,119ZM155,110L164,110L164,119L155,119ZM173,110L191,110L191,119L173,119ZM218,110L227,110L227,119L218,119ZM245,110L254,110L254,119L245,119ZM281,110L308,110L308,119L281,119ZM56,119L74,119L74,128L56,128ZM83,119L101,119L101,128L83,128ZM110,119L119,119L119,128L110,128ZM128,119L155,119L155,128L128,128ZM164,119L182,119L182,128L164,128ZM191,119L200,119L200,128L191,128ZM209,119L218,119L218,128L209,128ZM236,119L245,119L245,128L236,128ZM254,119L263,119L263,128L254,128ZM281,119L299,119L299,128L281,128ZM20,128L38,128L38,137L20,137ZM47,128L56,128L56,137L47,137ZM101,128L110,128L110,137L101,137ZM119,128L128,128L128,137L119,137ZM146,128L164,128L164,137L146,137ZM173,128L182,128L182,137L173,137ZM191,128L218,128L218,137L191,137ZM227,128L245,128L245,137L227,137ZM263,128L290,128L290,137L263,137ZM11,137L38,137L38,146L11,146ZM47,137L74,137L74,146L47,146ZM83,137L101,137L101,146L83,146ZM128,137L137,137L137,146L128,146ZM146,137L173,137L173,146L146,146ZM209,137L218,137L218,146L209,146ZM227,137L245,137L245,146L227,146ZM254,137L281,137L281,146L254,146ZM290,137L299,137L299,146L290,146ZM74,146L92,146L92,155L74,155ZM101,146L110,146L110,155L101,155ZM119,146L137,146L137,155L119,155ZM155,146L164,146L164,155L155,155ZM182,146L200,146L200,155L182,155ZM218,146L227,146L227,155L218,155ZM245,146L254,146L254,155L245,155ZM281,146L308,146L308,155L281,155ZM11,155L20,155L20,164L11,164ZM56,155L92,155L92,164L56,164ZM101,155L110,155L110,164L101,164ZM119,155L164,155L164,164L119,164ZM209,155L218,155L218,164L209,164ZM245,155L254,155L254,164L245,164ZM272,155L281,155L281,164L272,164ZM290,155L299,155L299,164L290,164ZM11,164L20,164L20,173L11,173ZM29,164L47,164L47,173L29,173ZM56,164L65,164L65,173L56,173ZM92,164L110,164L110,173L92,173ZM137,164L164,164L164,173L137,173ZM191,164L209,164L209,173L191,173ZM236,164L245,164L245,173L236,173ZM281,164L290,164L290,173L281,173ZM11,173L20,173L20,182L11,182ZM47,173L56,173L56,182L47,182ZM65,173L83,173L83,182L65,182ZM110,173L128,173L128,182L110,182ZM164,173L173,173L173,182L164,182ZM191,173L200,173L200,182L191,182ZM209,173L245,173L245,182L209,182ZM254,173L281,173L281,182L254,182ZM299,173L308,173L308,182L299,182ZM11,182L29,182L29,191L11,191ZM38,182L65,182L65,191L38,191ZM83,182L92,182L92,191L83,191ZM110,182L119,182L119,191L110,191ZM182,182L209,182L209,191L182,191ZM218,182L227,182L227,191L218,191ZM245,182L254,182L254,191L245,191ZM299,182L308,182L308,191L299,191ZM38,191L47,191L47,200L38,200ZM56,191L92,191L92,200L56,200ZM101,191L119,191L119,200L101,200ZM146,191L155,191L155,200L146,200ZM164,191L182,191L182,200L164,200ZM200,191L209,191L209,200L200,200ZM236,191L254,191L254,200L236,200ZM263,191L272,191L272,200L263,200ZM290,191L299,191L299,200L290,200ZM11,200L20,200L20,209L11,209ZM83,200L110,200L110,209L83,209ZM119,200L137,200L137,209L119,209ZM173,200L191,200L191,209L173,209ZM200,200L218,200L218,209L200,209ZM245,200L263,200L263,209L245,209ZM281,200L290,200L290,209L281,209ZM299,200L308,200L308,209L299,209ZM11,209L20,209L20,218L11,218ZM29,209L47,209L47,218L29,218ZM65,209L92,209L92,218L65,218ZM101,209L110,209L110,218L101,218ZM128,209L173,209L173,218L128,218ZM191,209L200,209L200,218L191,218ZM209,209L245,209L245,218L209,218ZM263,209L272,209L272,218L263,218ZM290,209L308,209L308,218L290,218ZM11,218L20,218L20,227L11,227ZM38,218L56,218L56,227L38,227ZM74,218L83,218L83,227L74,227ZM119,218L137,218L137,227L119,227ZM155,218L164,218L164,227L155,227ZM173,218L209,218L209,227L173,227ZM218,218L236,218L236,227L218,227ZM245,218L254,218L254,227L245,227ZM272,218L281,218L281,227L272,227ZM290,218L308,218L308,227L290,227ZM11,227L20,227L20,236L11,236ZM29,227L38,227L38,236L29,236ZM47,227L56,227L56,236L47,236ZM65,227L74,227L74,236L65,236ZM83,227L110,227L110,236L83,236ZM119,227L128,227L128,236L119,236ZM137,227L173,227L173,236L137,236ZM191,227L218,227L218,236L191,236ZM227,227L281,227L281,236L227,236ZM83,236L101,236L101,245L83,245ZM146,236L164,236L164,245L146,245ZM191,236L218,236L218,245L191,245ZM227,236L236,236L236,245L227,245ZM263,236L272,236L272,245L263,245ZM281,236L290,236L290,245L281,245ZM11,245L74,245L74,254L11,254ZM83,245L92,245L92,254L83,254ZM110,245L128,245L128,254L110,254ZM146,245L155,245L155,254L146,254ZM164,245L173,245L173,254L164,254ZM209,245L218,245L218,254L209,254ZM227,245L236,245L236,254L227,254ZM245,245L254,245L254,254L245,254ZM263,245L272,245L272,254L263,254ZM290,245L299,245L299,254L290,254ZM11,254L20,254L20,263L11,263ZM65,254L74,254L74,263L65,263ZM110,254L119,254L119,263L110,263ZM137,254L146,254L146,263L137,263ZM155,254L164,254L164,263L155,263ZM182,254L200,254L200,263L182,263ZM218,254L236,254L236,263L218,263ZM263,254L281,254L281,263L263,263ZM299,254L308,254L308,263L299,263ZM11,263L20,263L20,272L11,272ZM29,263L56,263L56,272L29,272ZM65,263L74,263L74,272L65,272ZM83,263L119,263L119,272L83,272ZM146,263L155,263L155,272L146,272ZM191,263L209,263L209,272L191,272ZM227,263L281,263L281,272L227,272ZM299,263L308,263L308,272L299,272ZM11,272L20,272L20,281L11,281ZM29,272L56,272L56,281L29,281ZM65,272L74,272L74,281L65,281ZM83,272L92,272L92,281L83,281ZM119,272L164,272L164,281L119,281ZM182,272L209,272L209,281L182,281ZM218,272L227,272L227,281L218,281ZM236,272L245,272L245,281L236,281ZM263,272L299,272L299,281L263,281ZM11,281L20,281L20,290L11,290ZM29,281L56,281L56,290L29,290ZM65,281L74,281L74,290L65,290ZM83,281L110,281L110,290L83,290ZM128,281L155,281L155,290L128,290ZM164,281L173,281L173,290L164,290ZM191,281L200,281L200,290L191,290ZM209,281L254,281L254,290L209,290ZM263,281L272,281L272,290L263,290ZM11,290L20,290L20,299L11,299ZM65,290L74,290L74,299L65,299ZM83,290L110,290L110,299L83,299ZM119,290L137,290L137,299L119,299ZM155,290L245,290L245,299L155,299ZM254,290L281,290L281,299L254,299ZM290,290L308,290L308,299L290,299ZM11,299L74,299L74,308L11,308ZM83,299L92,299L92,308L83,308ZM101,299L110,299L110,308L101,308ZM119,299L128,299L128,308L119,308ZM137,299L155,299L155,308L137,308ZM164,299L173,299L173,308L164,308ZM218,299L254,299L254,308L218,308ZM272,299L299,299L299,308L272,308Z"/></svg>
